HIERARCHY
ROOT Hips
{
	OFFSET 0.000000 0.000000 0.000000
	CHANNELS 6 Xposition Yposition Zposition Zrotation Yrotation Xrotation 
	JOINT LowerBack
	{
		OFFSET 0.000000 0.000000 0.000000
		CHANNELS 3 Zrotation Yrotation Xrotation
		JOINT Spine
		{
			OFFSET 0.028270 2.035590 -0.193380
			CHANNELS 3 Zrotation Yrotation Xrotation
			JOINT Spine1
			{
				OFFSET 0.056720 2.048850 -0.042750
				CHANNELS 3 Zrotation Yrotation Xrotation
				JOINT Neck
				{
					OFFSET 0.000000 0.000000 0.000000
					CHANNELS 3 Zrotation Yrotation Xrotation
					JOINT Neck1
					{
						OFFSET -0.054170 1.746240 0.172020
						CHANNELS 3 Zrotation Yrotation Xrotation
						JOINT Head
						{
							OFFSET 0.104070 1.761360 -0.123970
							CHANNELS 3 Zrotation Yrotation Xrotation
							End Site
							{
								OFFSET 0.000000 0.000000 0.000000
							}
						}
					}
				}
				JOINT LeftShoulder
				{
					OFFSET 0.000000 0.000000 0.000000
					CHANNELS 3 Zrotation Yrotation Xrotation
					JOINT LeftArm
					{
						OFFSET 3.362410 1.200890 -0.311210
						CHANNELS 3 Zrotation Yrotation Xrotation
						JOINT LeftForeArm
						{
							OFFSET 4.983000 -0.000000 -0.000000
							CHANNELS 3 Zrotation Yrotation Xrotation
							JOINT LeftHand
							{
								OFFSET 3.483560 -0.000000 -0.000000
								CHANNELS 3 Zrotation Yrotation Xrotation
								JOINT LeftFingerBase
								{
									OFFSET 0.000000 0.000000 0.000000
									CHANNELS 3 Zrotation Yrotation Xrotation
									JOINT LeftHandIndex1
									{
										OFFSET 0.715260 -0.000000 -0.000000
										CHANNELS 3 Zrotation Yrotation Xrotation
										End Site
										{
											OFFSET 0.000000 0.000000 0.000000
										}
									}
								}
								JOINT LThumb
								{
									OFFSET 0.000000 0.000000 0.000000
									CHANNELS 3 Zrotation Yrotation Xrotation
									End Site
									{
										OFFSET 0.000000 0.000000 0.000000
									}
								}
							}
						}
					}
				}
				JOINT RightShoulder
				{
					OFFSET 0.000000 0.000000 0.000000
					CHANNELS 3 Zrotation Yrotation Xrotation
					JOINT RightArm
					{
						OFFSET -3.136600 1.374050 -0.404650
						CHANNELS 3 Zrotation Yrotation Xrotation
						JOINT RightForeArm
						{
							OFFSET -5.241900 -0.000000 -0.000000
							CHANNELS 3 Zrotation Yrotation Xrotation
							JOINT RightHand
							{
								OFFSET -3.444170 -0.000000 -0.000000
								CHANNELS 3 Zrotation Yrotation Xrotation
								JOINT RightFingerBase
								{
									OFFSET 0.000000 0.000000 0.000000
									CHANNELS 3 Zrotation Yrotation Xrotation
									JOINT RightHandIndex1
									{
										OFFSET -0.622530 -0.000000 -0.000000
										CHANNELS 3 Zrotation Yrotation Xrotation
										End Site
										{
											OFFSET 0.000000 0.000000 0.000000
										}
									}
								}
								JOINT RThumb
								{
									OFFSET 0.000000 0.000000 0.000000
									CHANNELS 3 Zrotation Yrotation Xrotation
									End Site
									{
										OFFSET 0.000000 0.000000 0.000000
									}
								}
							}
						}
					}
				}
			}
		}
	}
}
}
MOTION
Frames: 14
Frame Time: 0.008333
-1.858998 17.536704 -1.621394 118.179742 -63.668689 -95.085401 -0.519465 -0.663376 7.824848 -0.640166 -0.464191 -1.771503 -4.117681 -0.577891 -1.276620 10.807071 4.673277 0.090732 -4.425312 -0.359844 1.618064 0.000000 0.000000 0.000000 -6.106747 -8.907319 2.827663 -64.617753 -8.374497 8.869937 -2.497105 -29.924660 0.000925 2.502733 -4.919571 -0.112427 -0.061626 0.126451 -0.000000 0.000000 0.000000 0.000000 0.000000 0.000000 0.000000 22.582438 3.558141 3.052718 50.146640 18.169325 -7.666361 2.789816 12.347232 0.004555 -2.339541 9.542034 -0.202564 0.056860 -0.137469 0.000000 0.000000 0.000000 0.000000 0.000000 0.000000 0.000000 
-1.859515 17.536195 -1.621154 118.345651 -63.442811 -94.987162 -0.501607 -0.667318 7.789393 -0.628277 -0.468748 -1.768932 -4.073533 -0.582265 -1.258880 10.696791 4.834171 0.160758 -4.412179 -0.359216 1.634171 0.000000 0.000000 0.000000 -6.242956 -8.979752 2.827546 -64.458951 -8.655893 8.714099 -2.490194 -29.927041 0.000780 2.536273 -4.931454 -0.114225 -0.061980 0.129072 -0.000000 0.000000 0.000000 0.000000 0.000000 0.000000 0.000000 22.474902 3.683020 3.060851 50.086071 18.402567 -8.028394 2.771202 11.771743 0.004370 -2.365078 9.483755 -0.203470 0.056704 -0.138249 0.000000 0.000000 0.000000 0.000000 0.000000 0.000000 0.000000 
-1.860358 17.535467 -1.619724 118.511348 -63.263510 -94.918176 -0.437807 -0.674721 7.751356 -0.606248 -0.477202 -1.767271 -4.031657 -0.590743 -1.241361 10.579147 4.998105 0.232772 -4.398893 -0.358588 1.651360 0.000000 0.000000 0.000000 -6.381285 -9.043216 2.827142 -64.310698 -8.946694 8.572199 -2.483108 -29.915651 0.000624 2.573982 -4.943616 -0.116326 -0.062364 0.131712 -0.000000 0.000000 0.000000 0.000000 0.000000 0.000000 0.000000 22.353174 3.811459 3.065893 50.037230 18.625276 -8.409150 2.753436 11.237728 0.004215 -2.369709 9.419236 -0.202474 0.056457 -0.138965 0.000000 0.000000 0.000000 0.000000 0.000000 0.000000 0.000000 
-1.861684 17.534516 -1.617269 118.672333 -63.129205 -94.874253 -0.337356 -0.684267 7.710927 -0.577135 -0.488194 -1.765472 -3.995663 -0.601959 -1.219986 10.466091 5.110837 0.296246 -4.389764 -0.358172 1.666754 0.000000 0.000000 0.000000 -6.506278 -9.119416 2.822184 -64.178561 -9.225632 8.425425 -2.473726 -29.908715 0.000451 2.614930 -4.957813 -0.118528 -0.062608 0.134218 -0.000000 0.000000 0.000000 0.000000 0.000000 0.000000 0.000000 22.252326 3.881603 3.070552 49.967517 18.903563 -8.638305 2.741844 10.734743 0.004084 -2.401178 9.354929 -0.203778 0.056675 -0.139474 0.000000 0.000000 0.000000 0.000000 0.000000 0.000000 0.000000 
-1.863341 17.533397 -1.613857 118.825508 -63.040506 -94.861572 -0.199279 -0.696949 7.675790 -0.539905 -0.502520 -1.763501 -3.963190 -0.616671 -1.200561 10.355511 5.222632 0.359757 -4.380498 -0.357737 1.682648 0.000000 0.000000 0.000000 -6.624856 -9.187669 2.817454 -64.059762 -9.513256 8.294813 -2.464524 -29.891944 0.000273 2.659136 -4.973078 -0.120926 -0.062895 0.136756 -0.000000 0.000000 0.000000 0.000000 0.000000 0.000000 0.000000 22.145459 3.952914 3.072564 49.910917 19.161072 -8.886838 2.731299 10.298601 0.003990 -2.403436 9.287981 -0.202582 0.056705 -0.139921 0.000000 0.000000 0.000000 0.000000 0.000000 0.000000 0.000000 
-1.865373 17.532044 -1.609720 118.973520 -62.993681 -94.884450 -0.030268 -0.710929 7.647622 -0.496609 -0.518314 -1.760505 -3.935972 -0.633001 -1.181389 10.254846 5.305659 0.417464 -4.373284 -0.357387 1.697413 0.000000 0.000000 0.000000 -6.728212 -9.257206 2.810793 -63.957480 -9.800147 8.171247 -2.454440 -29.874966 0.000083 2.705779 -4.989985 -0.123428 -0.063143 0.139253 -0.000000 0.000000 0.000000 0.000000 0.000000 0.000000 0.000000 22.051580 3.995068 3.073333 49.851109 19.425456 -9.063103 2.724373 9.934793 0.003928 -2.400718 9.218370 -0.200784 0.056816 -0.140231 0.000000 0.000000 0.000000 0.000000 0.000000 0.000000 0.000000 
-1.867887 17.530478 -1.605046 119.125553 -62.984679 -94.953726 0.161955 -0.726091 7.629634 -0.448772 -0.535341 -1.756616 -3.913444 -0.650675 -1.165634 10.165936 5.382186 0.473657 -4.366294 -0.357039 1.712210 0.000000 0.000000 0.000000 -6.814694 -9.322992 2.804280 -63.871257 -10.085501 8.056548 -2.444433 -29.859081 -0.000111 2.753603 -5.007983 -0.126129 -0.063410 0.141758 -0.000000 0.000000 0.000000 0.000000 0.000000 0.000000 0.000000 21.962066 4.034364 3.072315 49.804370 19.664972 -9.237445 2.718864 9.653768 0.003905 -2.371999 9.154088 -0.197087 0.056732 -0.140509 0.000000 0.000000 0.000000 0.000000 0.000000 0.000000 0.000000 
-1.871081 17.528796 -1.599806 119.293917 -63.013697 -95.079525 0.377879 -0.740013 7.621473 -0.396880 -0.551305 -1.750821 -3.897074 -0.667421 -1.149889 10.091585 5.419794 0.520595 -4.361983 -0.356798 1.724884 0.000000 0.000000 0.000000 -6.881201 -9.389133 2.795037 -63.804334 -10.364174 7.945095 -2.433054 -29.852695 -0.000316 2.803001 -5.028545 -0.128930 -0.063603 0.144199 -0.000000 0.000000 0.000000 0.000000 0.000000 0.000000 0.000000 21.892937 4.035763 3.070854 49.752095 19.918961 -9.309103 2.717863 9.451096 0.003910 -2.344943 9.095398 -0.193688 0.056786 -0.140694 0.000000 0.000000 0.000000 0.000000 0.000000 0.000000 0.000000 
-1.875047 17.527055 -1.594016 119.491758 -63.078626 -95.272714 0.617842 -0.751456 7.623373 -0.340838 -0.565054 -1.743004 -3.886271 -0.682089 -1.134727 10.030298 5.424086 0.558615 -4.359763 -0.356628 1.735499 0.000000 0.000000 0.000000 -6.930602 -9.450799 2.783442 -63.755668 -10.636712 7.839041 -2.420267 -29.858461 -0.000528 2.854260 -5.051553 -0.131932 -0.063734 0.146596 -0.000000 0.000000 0.000000 0.000000 0.000000 0.000000 0.000000 21.839550 4.007184 3.068762 49.699061 20.178157 -9.296144 2.720600 9.332410 0.003945 -2.315220 9.044750 -0.190289 0.056909 -0.140840 0.000000 0.000000 0.000000 0.000000 0.000000 0.000000 0.000000 
-1.879820 17.525140 -1.588065 119.730257 -63.170940 -95.541439 0.869416 -0.760431 7.633239 -0.283351 -0.576615 -1.734467 -3.880816 -0.694678 -1.123337 9.984324 5.419043 0.593219 -4.358352 -0.356503 1.745611 0.000000 0.000000 0.000000 -6.958094 -9.505410 2.771558 -63.724780 -10.896711 7.736277 -2.407122 -29.880221 -0.000744 2.905624 -5.076273 -0.134933 -0.063860 0.148979 -0.000000 0.000000 0.000000 0.000000 0.000000 0.000000 0.000000 21.796773 3.975686 3.065470 49.659558 20.410059 -9.249721 2.724906 9.307145 0.004008 -2.271131 9.008356 -0.185988 0.056901 -0.141030 0.000000 0.000000 0.000000 0.000000 0.000000 0.000000 0.000000 
-1.885445 17.523013 -1.582056 120.018804 -63.285652 -95.890027 1.128244 -0.766217 7.646885 -0.225509 -0.585464 -1.726003 -3.880687 -0.704656 -1.115721 9.953400 5.404831 0.624560 -4.357932 -0.356448 1.755306 0.000000 0.000000 0.000000 -6.962527 -9.553386 2.759208 -63.711566 -11.137763 7.634619 -2.393479 -29.923978 -0.000959 2.957000 -5.102921 -0.138035 -0.063974 0.151334 -0.000000 0.000000 0.000000 0.000000 0.000000 0.000000 0.000000 21.765534 3.941640 3.061070 49.633454 20.615339 -9.155052 2.730884 9.373240 0.004096 -2.219821 8.990295 -0.181486 0.056818 -0.141287 0.000000 0.000000 0.000000 0.000000 0.000000 0.000000 0.000000 
-1.892364 17.521091 -1.575292 120.374313 -63.433991 -96.326450 1.413580 -0.767516 7.661473 -0.163184 -0.590687 -1.716755 -3.885774 -0.711201 -1.107622 9.929444 5.360123 0.645967 -4.359590 -0.356467 1.762700 0.000000 0.000000 0.000000 -6.956817 -9.588211 2.744190 -63.715790 -11.366952 7.542522 -2.377868 -29.991509 -0.001190 3.011845 -5.133110 -0.141436 -0.064018 0.153650 -0.000000 0.000000 0.000000 0.000000 0.000000 0.000000 0.000000 21.744050 3.882199 3.055835 49.608900 20.825928 -8.970082 2.740069 9.520122 0.004200 -2.175871 8.984595 -0.177884 0.056875 -0.141583 0.000000 0.000000 0.000000 0.000000 0.000000 0.000000 0.000000 
-1.900320 17.518898 -1.568773 120.792617 -63.592698 -96.842249 1.696788 -0.765672 7.669659 -0.102558 -0.593693 -1.710114 -3.895418 -0.715610 -1.104990 9.918501 5.322606 0.668806 -4.361546 -0.356571 1.771065 0.000000 0.000000 0.000000 -6.927529 -9.618131 2.729808 -63.735544 -11.563448 7.449386 -2.362091 -30.089974 -0.001417 3.066083 -5.164930 -0.144937 -0.064069 0.155934 -0.000000 0.000000 0.000000 0.000000 0.000000 0.000000 0.000000 21.729091 3.837366 3.049017 49.605991 20.992215 -8.754042 2.749446 9.754336 0.004319 -2.128033 9.003960 -0.174380 0.056826 -0.142014 0.000000 0.000000 0.000000 0.000000 0.000000 0.000000 0.000000 
-1.909727 17.516998 -1.561380 121.287096 -63.782131 -97.444631 2.008273 -0.760061 7.671002 -0.036846 -0.594236 -1.704211 -3.909273 -0.717748 -1.101588 9.908519 5.263778 0.683592 -4.364856 -0.356723 1.777698 0.000000 0.000000 0.000000 -6.894834 -9.630800 2.713245 -63.769532 -11.745330 7.372925 -2.344582 -30.215964 -0.001662 3.124762 -5.198987 -0.148638 -0.064079 0.158181 -0.000000 0.000000 0.000000 0.000000 0.000000 0.000000 0.000000 21.714638 3.776441 3.040673 49.610040 21.158027 -8.469446 2.760958 10.058813 0.004451 -2.088366 9.036256 -0.171877 0.056904 -0.142516 0.000000 0.000000 0.000000 0.000000 0.000000 0.000000 0.000000 
